<?xml version="1.0" standalone="no"?><!DOCTYPE svg PUBLIC "-//W3C//DTD SVG 1.1//EN" "http://www.w3.org/Graphics/SVG/1.1/DTD/svg11.dtd"><svg t="1614071732666" class="icon" viewBox="0 0 1024 1024" version="1.1" xmlns="http://www.w3.org/2000/svg" p-id="3263" xmlns:xlink="http://www.w3.org/1999/xlink" width="200" height="200"><defs><style type="text/css"></style></defs><path d="M710.4 625.493333L398.506667 313.6C533.333333 179.413333 784.853333 124.16 882.773333 106.666667A29.653333 29.653333 0 0 1 917.333333 141.226667c-17.28 97.706667-71.893333 349.44-206.933333 484.266666z" fill="#90A4AE" p-id="3264"></path><path d="M639.488 384.341333a30.08 30.08 0 0 1 0 42.538667l-141.802667 141.802667-42.538666-42.56 141.802666-141.781334a30.08 30.08 0 0 1 42.538667 0z" fill="#B0BEC5" p-id="3265"></path><path d="M455.210667 512.042667l56.725333 56.746666a20.053333 20.053333 0 0 1 0 28.330667l-42.538667 42.56-85.077333-85.098667 42.538667-42.538666a20.053333 20.053333 0 0 1 28.373333 0z" fill="#90A4AE" p-id="3266"></path><path d="M364.297277 534.604349m20.062977 20.062976l84.928238 84.928238q20.062976 20.062976 0 40.125953l-229.291159 229.291159q-20.062976 20.062976-40.125952 0l-84.928239-84.928238q-20.062976-20.062976 0-40.125953l229.291159-229.291159q20.062976-20.062976 40.125953 0Z" fill="#FF9800" p-id="3267"></path></svg>