<svg class="icon" viewBox="0 0 1024 1024" xmlns="http://www.w3.org/2000/svg" width="200" height="200"><defs><style/></defs><path d="M710.4 625.493L398.507 313.6c134.826-134.187 386.346-189.44 484.266-206.933a29.653 29.653 0 0134.56 34.56c-17.28 97.706-71.893 349.44-206.933 484.266z" fill="#90A4AE"/><path d="M639.488 384.341a30.08 30.08 0 010 42.539L497.685 568.683l-42.538-42.56L596.949 384.34a30.08 30.08 0 0142.539 0z" fill="#B0BEC5"/><path d="M455.21 512.043l56.726 56.746a20.053 20.053 0 010 28.331l-42.539 42.56-85.077-85.099 42.539-42.538a20.053 20.053 0 0128.373 0z" fill="#90A4AE"/><path d="M384.36 554.667l84.928 84.929q20.063 20.063 0 40.126l-229.29 229.29q-20.064 20.064-40.127 0l-84.928-84.928q-20.063-20.063 0-40.126l229.291-229.29q20.063-20.064 40.126 0z" fill="#FF9800"/></svg>